<svg id="visual" viewBox="0 0 2400 1920" width="2400" height="1920" xmlns="http://www.w3.org/2000/svg" xmlns:xlink="http://www.w3.org/1999/xlink" version="1.1"><rect x="0" y="0" width="2400" height="1920" fill="#001122"></rect><path d="M0 1150L343 1408L686 1131L1029 1426L1371 1264L1714 1290L2057 1288L2400 1386L2400 1921L2057 1921L1714 1921L1371 1921L1029 1921L686 1921L343 1921L0 1921Z" fill="#f5730a"></path><path d="M0 1447L343 1290L686 1337L1029 1433L1371 1498L1714 1339L2057 1359L2400 1272L2400 1921L2057 1921L1714 1921L1371 1921L1029 1921L686 1921L343 1921L0 1921Z" fill="#ed6206"></path><path d="M0 1458L343 1427L686 1502L1029 1494L1371 1625L1714 1617L2057 1567L2400 1558L2400 1921L2057 1921L1714 1921L1371 1921L1029 1921L686 1921L343 1921L0 1921Z" fill="#e45004"></path><path d="M0 1645L343 1600L686 1630L1029 1656L1371 1673L1714 1592L2057 1621L2400 1640L2400 1921L2057 1921L1714 1921L1371 1921L1029 1921L686 1921L343 1921L0 1921Z" fill="#db3d04"></path><path d="M0 1830L343 1786L686 1723L1029 1806L1371 1837L1714 1747L2057 1823L2400 1787L2400 1921L2057 1921L1714 1921L1371 1921L1029 1921L686 1921L343 1921L0 1921Z" fill="#d22506"></path></svg>