<svg xmlns="http://www.w3.org/2000/svg" xmlns:xlink="http://www.w3.org/1999/xlink" width="500" zoomAndPan="magnify" viewBox="0 0 375 149.999998" height="200" preserveAspectRatio="xMidYMid meet" version="1.0"><defs><g/><clipPath id="bcb90cab19"><path d="M 8.113281 42 L 58 42 L 58 111 L 8.113281 111 Z M 8.113281 42 " clip-rule="nonzero"/></clipPath><clipPath id="b6d8f65799"><path d="M 8.113281 41 L 58 41 L 58 112 L 8.113281 112 Z M 8.113281 41 " clip-rule="nonzero"/></clipPath><clipPath id="556f94bbb4"><path d="M 66 87 L 128.863281 87 L 128.863281 119 L 66 119 Z M 66 87 " clip-rule="nonzero"/></clipPath><clipPath id="a1dbfd767c"><path d="M 65 86 L 128.863281 86 L 128.863281 119.238281 L 65 119.238281 Z M 65 86 " clip-rule="nonzero"/></clipPath><clipPath id="0d7a0ca33a"><path d="M 13 30.738281 L 58 30.738281 L 58 55 L 13 55 Z M 13 30.738281 " clip-rule="nonzero"/></clipPath></defs><g clip-path="url(#bcb90cab19)"><path fill="#ffffff" d="M 8.875 94.035156 C 8.875 94.035156 46.554688 71.738281 46.554688 42.265625 C 46.554688 42.265625 54.773438 45.421875 57.015625 53.144531 C 59.257812 60.863281 21.152344 110.425781 21.152344 110.425781 L 8.875 94.035156 " fill-opacity="1" fill-rule="nonzero"/></g><g clip-path="url(#b6d8f65799)"><path fill="#ff3131" d="M 8.875 94.035156 L 9.21875 94.617188 C 9.246094 94.597656 18.703125 89.003906 28.1875 79.6875 C 32.929688 75.023438 37.679688 69.429688 41.253906 63.121094 C 44.828125 56.816406 47.230469 49.78125 47.230469 42.265625 L 46.554688 42.265625 L 46.3125 42.898438 C 46.398438 42.933594 48.410156 43.730469 50.644531 45.429688 C 51.761719 46.28125 52.929688 47.355469 53.953125 48.667969 C 54.972656 49.980469 55.839844 51.523438 56.363281 53.332031 C 56.40625 53.472656 56.433594 53.667969 56.433594 53.90625 C 56.433594 54.410156 56.308594 55.113281 56.058594 55.953125 C 55.585938 57.527344 54.675781 59.585938 53.445312 61.949219 C 51.289062 66.085938 48.15625 71.167969 44.671875 76.457031 C 39.445312 84.386719 33.429688 92.78125 28.71875 99.1875 C 26.367188 102.390625 24.339844 105.097656 22.902344 107.003906 C 22.183594 107.957031 21.609375 108.707031 21.21875 109.222656 C 21.023438 109.480469 20.871094 109.679688 20.769531 109.8125 C 20.667969 109.945312 20.613281 110.011719 20.613281 110.011719 L 21.152344 110.425781 L 21.691406 110.019531 L 9.414062 93.628906 L 8.875 94.035156 L 9.21875 94.617188 L 8.875 94.035156 L 8.332031 94.441406 L 20.609375 110.832031 C 20.738281 111 20.933594 111.097656 21.148438 111.101562 C 21.359375 111.101562 21.558594 111.003906 21.6875 110.835938 C 21.691406 110.832031 30.683594 99.132812 39.683594 86.207031 C 44.1875 79.742188 48.6875 72.972656 52.074219 67.191406 C 53.769531 64.300781 55.183594 61.65625 56.183594 59.40625 C 56.683594 58.28125 57.078125 57.257812 57.355469 56.339844 C 57.628906 55.421875 57.785156 54.617188 57.785156 53.90625 C 57.785156 53.570312 57.75 53.253906 57.664062 52.953125 C 57.078125 50.929688 56.097656 49.207031 54.964844 47.769531 C 53.269531 45.609375 51.238281 44.089844 49.628906 43.097656 C 48.015625 42.105469 46.824219 41.648438 46.796875 41.636719 C 46.589844 41.554688 46.355469 41.585938 46.171875 41.710938 C 45.988281 41.835938 45.878906 42.046875 45.878906 42.265625 C 45.878906 49.488281 43.570312 56.292969 40.078125 62.457031 C 34.84375 71.695312 26.949219 79.464844 20.367188 84.90625 C 17.074219 87.625 14.109375 89.765625 11.96875 91.222656 C 10.902344 91.953125 10.039062 92.511719 9.445312 92.886719 C 9.148438 93.074219 8.917969 93.21875 8.761719 93.3125 C 8.683594 93.359375 8.625 93.394531 8.585938 93.417969 C 8.546875 93.441406 8.53125 93.453125 8.53125 93.453125 C 8.363281 93.550781 8.25 93.714844 8.210938 93.902344 C 8.171875 94.09375 8.214844 94.285156 8.332031 94.441406 L 8.875 94.035156 " fill-opacity="1" fill-rule="nonzero"/></g><path fill="#ffffff" d="M 54.636719 94.714844 C 39.625 74.058594 30.496094 64.71875 24.40625 42.265625 C 24.40625 42.265625 16.1875 45.421875 13.945312 53.144531 C 11.953125 60.015625 37.820312 95.046875 48.417969 107.578125 C 51.015625 110.644531 59.859375 117.351562 66.421875 117.351562 C 73.71875 117.351562 76.117188 113.976562 77.640625 111.984375 C 77.640625 111.984375 66.421875 110.929688 54.636719 94.714844 " fill-opacity="1" fill-rule="nonzero"/><path fill="#ff3131" d="M 54.636719 94.714844 L 55.183594 94.316406 C 47.667969 83.976562 41.636719 76.480469 36.746094 68.800781 C 31.855469 61.121094 28.089844 53.257812 25.058594 42.089844 C 25.007812 41.90625 24.882812 41.75 24.710938 41.664062 C 24.542969 41.578125 24.34375 41.566406 24.164062 41.636719 C 24.125 41.652344 22.019531 42.460938 19.609375 44.269531 C 18.40625 45.175781 17.125 46.332031 15.996094 47.769531 C 14.863281 49.207031 13.886719 50.929688 13.296875 52.953125 C 13.203125 53.285156 13.160156 53.636719 13.160156 54.015625 C 13.160156 54.628906 13.269531 55.308594 13.457031 56.058594 C 13.816406 57.464844 14.472656 59.128906 15.363281 61.011719 C 16.925781 64.304688 19.210938 68.257812 21.894531 72.5 C 29.953125 85.226562 41.597656 100.558594 47.902344 108.011719 C 48.59375 108.828125 49.65625 109.839844 50.976562 110.921875 C 52.957031 112.539062 55.515625 114.300781 58.222656 115.671875 C 60.933594 117.035156 63.789062 118.023438 66.421875 118.027344 C 70.171875 118.027344 72.746094 117.152344 74.5625 115.984375 C 76.375 114.820312 77.421875 113.382812 78.175781 112.398438 C 78.328125 112.203125 78.359375 111.941406 78.261719 111.714844 C 78.160156 111.488281 77.949219 111.335938 77.703125 111.3125 L 77.679688 111.574219 L 77.703125 111.3125 L 77.679688 111.574219 L 77.703125 111.3125 C 77.691406 111.3125 74.957031 111.039062 70.78125 108.78125 C 66.601562 106.523438 60.976562 102.285156 55.183594 94.316406 L 54.089844 95.113281 C 60.039062 103.296875 65.871094 107.6875 70.238281 110.027344 C 74.605469 112.367188 77.5 112.652344 77.578125 112.660156 L 77.640625 111.984375 L 77.101562 111.574219 C 76.335938 112.578125 75.417969 113.824219 73.832031 114.84375 C 72.242188 115.863281 69.96875 116.671875 66.421875 116.671875 C 64.898438 116.675781 63.1875 116.28125 61.445312 115.621094 C 58.835938 114.636719 56.164062 113.070312 53.921875 111.46875 C 52.796875 110.667969 51.78125 109.855469 50.929688 109.109375 C 50.078125 108.363281 49.390625 107.675781 48.9375 107.140625 C 43.855469 101.132812 35.210938 89.886719 27.859375 79.09375 C 24.183594 73.703125 20.828125 68.417969 18.398438 63.96875 C 17.183594 61.746094 16.203125 59.730469 15.535156 58.027344 C 15.199219 57.175781 14.941406 56.402344 14.769531 55.726562 C 14.597656 55.050781 14.511719 54.46875 14.515625 54.015625 C 14.511719 53.734375 14.542969 53.507812 14.597656 53.332031 C 15.128906 51.496094 16.015625 49.929688 17.058594 48.605469 C 18.617188 46.617188 20.527344 45.179688 22.042969 44.25 C 22.800781 43.78125 23.457031 43.441406 23.925781 43.21875 C 24.15625 43.109375 24.34375 43.027344 24.46875 42.972656 C 24.527344 42.945312 24.578125 42.925781 24.605469 42.914062 L 24.640625 42.902344 L 24.648438 42.898438 L 24.40625 42.265625 L 23.753906 42.445312 C 26.8125 53.730469 30.65625 61.761719 35.605469 69.527344 C 40.554688 77.296875 46.597656 84.796875 54.089844 95.113281 L 54.636719 94.714844 " fill-opacity="1" fill-rule="nonzero"/><g clip-path="url(#556f94bbb4)"><path fill="#ffffff" d="M 66.421875 117.351562 C 66.421875 117.351562 71.761719 117.160156 77.640625 111.984375 C 83.917969 106.457031 95.441406 96.296875 103.324219 89.878906 C 108.144531 85.949219 120.800781 86.21875 128.195312 89.878906 C 128.195312 89.878906 115.765625 93.789062 109.136719 104.46875 C 101.941406 116.050781 96.394531 117.542969 92.003906 118.195312 C 87.617188 118.84375 74.691406 118.753906 66.421875 117.351562 " fill-opacity="1" fill-rule="nonzero"/></g><g clip-path="url(#a1dbfd767c)"><path fill="#ff3131" d="M 66.421875 117.351562 L 66.449219 118.027344 C 66.5 118.023438 67.898438 117.96875 70.042969 117.25 C 72.1875 116.53125 75.074219 115.144531 78.085938 112.492188 C 84.367188 106.96875 95.886719 96.808594 103.75 90.402344 C 104.820312 89.527344 106.390625 88.839844 108.257812 88.386719 C 110.128906 87.933594 112.292969 87.707031 114.546875 87.707031 C 119.214844 87.703125 124.265625 88.683594 127.898438 90.484375 L 128.195312 89.878906 L 127.992188 89.230469 C 127.960938 89.242188 124.808594 90.234375 120.808594 92.585938 C 116.8125 94.933594 111.960938 98.640625 108.5625 104.109375 C 104.996094 109.847656 101.871094 113.035156 99.144531 114.867188 C 96.410156 116.699219 94.070312 117.203125 91.90625 117.527344 C 91.105469 117.644531 89.96875 117.742188 88.613281 117.804688 C 87.257812 117.871094 85.679688 117.90625 83.972656 117.90625 C 78.449219 117.90625 71.582031 117.539062 66.535156 116.683594 L 66.421875 117.351562 L 66.449219 118.027344 L 66.421875 117.351562 L 66.3125 118.015625 C 71.484375 118.894531 78.386719 119.257812 83.972656 119.257812 C 85.699219 119.257812 87.296875 119.222656 88.679688 119.15625 C 90.066406 119.089844 91.230469 118.992188 92.105469 118.863281 C 94.332031 118.535156 96.960938 117.96875 99.898438 115.992188 C 102.835938 114.019531 106.082031 110.667969 109.710938 104.824219 C 112.945312 99.617188 117.621094 96.027344 121.496094 93.753906 C 123.433594 92.613281 125.167969 91.804688 126.414062 91.277344 C 127.035156 91.015625 127.539062 90.828125 127.878906 90.703125 C 128.050781 90.640625 128.183594 90.59375 128.273438 90.566406 C 128.316406 90.550781 128.347656 90.539062 128.371094 90.53125 L 128.394531 90.523438 L 128.398438 90.523438 C 128.664062 90.441406 128.851562 90.203125 128.871094 89.929688 C 128.890625 89.65625 128.742188 89.394531 128.496094 89.273438 C 124.597656 87.347656 119.402344 86.359375 114.546875 86.355469 C 112.203125 86.355469 109.941406 86.589844 107.941406 87.074219 C 105.941406 87.5625 104.195312 88.296875 102.898438 89.351562 C 94.996094 95.789062 83.472656 105.949219 77.191406 111.476562 C 74.328125 114 71.609375 115.296875 69.613281 115.964844 C 68.613281 116.300781 67.800781 116.480469 67.238281 116.574219 C 66.957031 116.617188 66.742188 116.644531 66.597656 116.660156 C 66.527344 116.664062 66.476562 116.671875 66.441406 116.671875 L 66.40625 116.675781 L 66.398438 116.675781 L 66.40625 116.8125 L 66.398438 116.675781 L 66.40625 116.8125 L 66.398438 116.675781 C 66.050781 116.6875 65.773438 116.960938 65.75 117.304688 C 65.726562 117.652344 65.96875 117.957031 66.3125 118.015625 L 66.421875 117.351562 " fill-opacity="1" fill-rule="nonzero"/></g><path fill="#ffffff" d="M 57.109375 54.015625 C 57.109375 54.015625 34.757812 40.753906 13.851562 54.015625 C 13.851562 54.015625 18.726562 31.414062 36.1875 31.414062 C 53.652344 31.414062 57.109375 54.015625 57.109375 54.015625 " fill-opacity="1" fill-rule="nonzero"/><g clip-path="url(#0d7a0ca33a)"><path fill="#ff3131" d="M 57.109375 54.015625 L 57.453125 53.433594 C 57.425781 53.417969 54.90625 51.925781 50.769531 50.429688 C 46.628906 48.9375 40.871094 47.445312 34.359375 47.445312 C 27.847656 47.441406 20.578125 48.945312 13.488281 53.445312 L 13.851562 54.015625 L 14.511719 54.15625 L 14.515625 54.144531 C 14.578125 53.84375 15.855469 48.253906 19.207031 42.804688 C 20.882812 40.078125 23.070312 37.390625 25.863281 35.394531 C 28.65625 33.402344 32.035156 32.09375 36.1875 32.089844 C 40.40625 32.09375 43.734375 33.445312 46.414062 35.480469 C 50.433594 38.539062 52.960938 43.199219 54.464844 47.105469 C 55.214844 49.058594 55.710938 50.820312 56.019531 52.089844 C 56.171875 52.722656 56.277344 53.234375 56.34375 53.585938 C 56.378906 53.757812 56.402344 53.894531 56.417969 53.984375 C 56.425781 54.03125 56.433594 54.0625 56.4375 54.085938 L 56.441406 54.117188 L 57.109375 54.015625 L 57.453125 53.433594 L 57.109375 54.015625 L 57.777344 53.914062 C 57.769531 53.871094 56.902344 48.160156 53.792969 42.394531 C 52.238281 39.507812 50.117188 36.605469 47.234375 34.40625 C 44.355469 32.207031 40.703125 30.734375 36.1875 30.738281 C 31.675781 30.734375 27.941406 32.207031 24.933594 34.398438 C 20.417969 37.6875 17.503906 42.554688 15.695312 46.585938 C 13.890625 50.625 13.195312 53.839844 13.191406 53.871094 C 13.132812 54.140625 13.238281 54.414062 13.464844 54.570312 C 13.6875 54.726562 13.984375 54.730469 14.214844 54.585938 C 21.0625 50.242188 28.050781 48.796875 34.359375 48.796875 C 40.664062 48.796875 46.277344 50.25 50.3125 51.703125 C 52.328125 52.429688 53.945312 53.15625 55.058594 53.703125 C 55.617188 53.972656 56.046875 54.199219 56.335938 54.355469 C 56.480469 54.433594 56.589844 54.496094 56.660156 54.535156 C 56.695312 54.558594 56.722656 54.574219 56.742188 54.582031 L 56.757812 54.59375 L 56.765625 54.597656 C 56.988281 54.730469 57.269531 54.722656 57.488281 54.574219 C 57.703125 54.429688 57.816406 54.171875 57.777344 53.914062 L 57.109375 54.015625 " fill-opacity="1" fill-rule="nonzero"/></g><g fill="#000000" fill-opacity="1"><g transform="translate(134.03257, 71.38875)"><g><path d="M 1.1875 -12.703125 C 1.1875 -15.210938 1.726562 -17.445312 2.8125 -19.40625 C 3.894531 -21.375 5.40625 -22.90625 7.34375 -24 C 9.28125 -25.09375 11.476562 -25.640625 13.9375 -25.640625 C 16.945312 -25.640625 19.519531 -24.84375 21.65625 -23.25 C 23.800781 -21.664062 25.238281 -19.5 25.96875 -16.75 L 19.171875 -16.75 C 18.671875 -17.8125 17.957031 -18.617188 17.03125 -19.171875 C 16.101562 -19.722656 15.046875 -20 13.859375 -20 C 11.960938 -20 10.421875 -19.335938 9.234375 -18.015625 C 8.054688 -16.691406 7.46875 -14.921875 7.46875 -12.703125 C 7.46875 -10.492188 8.054688 -8.726562 9.234375 -7.40625 C 10.421875 -6.082031 11.960938 -5.421875 13.859375 -5.421875 C 15.046875 -5.421875 16.101562 -5.695312 17.03125 -6.25 C 17.957031 -6.800781 18.671875 -7.609375 19.171875 -8.671875 L 25.96875 -8.671875 C 25.238281 -5.921875 23.800781 -3.753906 21.65625 -2.171875 C 19.519531 -0.597656 16.945312 0.1875 13.9375 0.1875 C 11.476562 0.1875 9.28125 -0.359375 7.34375 -1.453125 C 5.40625 -2.554688 3.894531 -4.082031 2.8125 -6.03125 C 1.726562 -7.976562 1.1875 -10.203125 1.1875 -12.703125 Z M 1.1875 -12.703125 "/></g></g></g><g fill="#000000" fill-opacity="1"><g transform="translate(161.539584, 71.38875)"><g><path d="M 1.015625 -10.109375 C 1.015625 -12.179688 1.40625 -14 2.1875 -15.5625 C 2.96875 -17.125 4.03125 -18.328125 5.375 -19.171875 C 6.726562 -20.015625 8.234375 -20.4375 9.890625 -20.4375 C 11.316406 -20.4375 12.5625 -20.144531 13.625 -19.5625 C 14.695312 -18.988281 15.523438 -18.234375 16.109375 -17.296875 L 16.109375 -20.15625 L 22.28125 -20.15625 L 22.28125 0 L 16.109375 0 L 16.109375 -2.859375 C 15.503906 -1.910156 14.664062 -1.148438 13.59375 -0.578125 C 12.519531 -0.00390625 11.273438 0.28125 9.859375 0.28125 C 8.222656 0.28125 6.726562 -0.144531 5.375 -1 C 4.03125 -1.851562 2.96875 -3.066406 2.1875 -4.640625 C 1.40625 -6.210938 1.015625 -8.035156 1.015625 -10.109375 Z M 16.109375 -10.078125 C 16.109375 -11.617188 15.679688 -12.832031 14.828125 -13.71875 C 13.972656 -14.613281 12.929688 -15.0625 11.703125 -15.0625 C 10.472656 -15.0625 9.429688 -14.617188 8.578125 -13.734375 C 7.722656 -12.859375 7.296875 -11.648438 7.296875 -10.109375 C 7.296875 -8.566406 7.722656 -7.34375 8.578125 -6.4375 C 9.429688 -5.539062 10.472656 -5.09375 11.703125 -5.09375 C 12.929688 -5.09375 13.972656 -5.535156 14.828125 -6.421875 C 15.679688 -7.316406 16.109375 -8.535156 16.109375 -10.078125 Z M 16.109375 -10.078125 "/></g></g></g><g fill="#000000" fill-opacity="1"><g transform="translate(186.050426, 71.38875)"><g><path d="M 27.953125 -20.359375 C 30.453125 -20.359375 32.441406 -19.597656 33.921875 -18.078125 C 35.398438 -16.566406 36.140625 -14.460938 36.140625 -11.765625 L 36.140625 0 L 30 0 L 30 -10.9375 C 30 -12.238281 29.65625 -13.242188 28.96875 -13.953125 C 28.289062 -14.660156 27.347656 -15.015625 26.140625 -15.015625 C 24.941406 -15.015625 24 -14.660156 23.3125 -13.953125 C 22.625 -13.242188 22.28125 -12.238281 22.28125 -10.9375 L 22.28125 0 L 16.140625 0 L 16.140625 -10.9375 C 16.140625 -12.238281 15.796875 -13.242188 15.109375 -13.953125 C 14.421875 -14.660156 13.476562 -15.015625 12.28125 -15.015625 C 11.070312 -15.015625 10.125 -14.660156 9.4375 -13.953125 C 8.75 -13.242188 8.40625 -12.238281 8.40625 -10.9375 L 8.40625 0 L 2.234375 0 L 2.234375 -20.15625 L 8.40625 -20.15625 L 8.40625 -17.625 C 9.039062 -18.46875 9.863281 -19.132812 10.875 -19.625 C 11.882812 -20.113281 13.023438 -20.359375 14.296875 -20.359375 C 15.816406 -20.359375 17.171875 -20.035156 18.359375 -19.390625 C 19.554688 -18.742188 20.488281 -17.816406 21.15625 -16.609375 C 21.851562 -17.710938 22.800781 -18.613281 24 -19.3125 C 25.207031 -20.007812 26.523438 -20.359375 27.953125 -20.359375 Z M 27.953125 -20.359375 "/></g></g></g><g fill="#000000" fill-opacity="1"><g transform="translate(224.27869, 71.38875)"><g><path d="M 8.40625 -17.296875 C 9.007812 -18.234375 9.84375 -18.988281 10.90625 -19.5625 C 11.96875 -20.144531 13.207031 -20.4375 14.625 -20.4375 C 16.28125 -20.4375 17.78125 -20.015625 19.125 -19.171875 C 20.476562 -18.328125 21.546875 -17.125 22.328125 -15.5625 C 23.109375 -14 23.5 -12.179688 23.5 -10.109375 C 23.5 -8.035156 23.109375 -6.210938 22.328125 -4.640625 C 21.546875 -3.066406 20.476562 -1.851562 19.125 -1 C 17.78125 -0.144531 16.28125 0.28125 14.625 0.28125 C 13.226562 0.28125 11.992188 -0.00390625 10.921875 -0.578125 C 9.847656 -1.148438 9.007812 -1.894531 8.40625 -2.8125 L 8.40625 9.609375 L 2.234375 9.609375 L 2.234375 -20.15625 L 8.40625 -20.15625 Z M 17.21875 -10.109375 C 17.21875 -11.648438 16.789062 -12.859375 15.9375 -13.734375 C 15.082031 -14.617188 14.03125 -15.0625 12.78125 -15.0625 C 11.550781 -15.0625 10.507812 -14.613281 9.65625 -13.71875 C 8.800781 -12.832031 8.375 -11.617188 8.375 -10.078125 C 8.375 -8.535156 8.800781 -7.316406 9.65625 -6.421875 C 10.507812 -5.535156 11.550781 -5.09375 12.78125 -5.09375 C 14.007812 -5.09375 15.054688 -5.539062 15.921875 -6.4375 C 16.785156 -7.34375 17.21875 -8.566406 17.21875 -10.109375 Z M 17.21875 -10.109375 "/></g></g></g><g fill="#000000" fill-opacity="1"><g transform="translate(248.789533, 71.38875)"><g><path d="M 1.015625 -10.109375 C 1.015625 -12.179688 1.40625 -14 2.1875 -15.5625 C 2.96875 -17.125 4.03125 -18.328125 5.375 -19.171875 C 6.726562 -20.015625 8.234375 -20.4375 9.890625 -20.4375 C 11.316406 -20.4375 12.5625 -20.144531 13.625 -19.5625 C 14.695312 -18.988281 15.523438 -18.234375 16.109375 -17.296875 L 16.109375 -20.15625 L 22.28125 -20.15625 L 22.28125 0 L 16.109375 0 L 16.109375 -2.859375 C 15.503906 -1.910156 14.664062 -1.148438 13.59375 -0.578125 C 12.519531 -0.00390625 11.273438 0.28125 9.859375 0.28125 C 8.222656 0.28125 6.726562 -0.144531 5.375 -1 C 4.03125 -1.851562 2.96875 -3.066406 2.1875 -4.640625 C 1.40625 -6.210938 1.015625 -8.035156 1.015625 -10.109375 Z M 16.109375 -10.078125 C 16.109375 -11.617188 15.679688 -12.832031 14.828125 -13.71875 C 13.972656 -14.613281 12.929688 -15.0625 11.703125 -15.0625 C 10.472656 -15.0625 9.429688 -14.617188 8.578125 -13.734375 C 7.722656 -12.859375 7.296875 -11.648438 7.296875 -10.109375 C 7.296875 -8.566406 7.722656 -7.34375 8.578125 -6.4375 C 9.429688 -5.539062 10.472656 -5.09375 11.703125 -5.09375 C 12.929688 -5.09375 13.972656 -5.535156 14.828125 -6.421875 C 15.679688 -7.316406 16.109375 -8.535156 16.109375 -10.078125 Z M 16.109375 -10.078125 "/></g></g></g><g fill="#000000" fill-opacity="1"><g transform="translate(273.300376, 71.38875)"><g><path d="M 14.515625 -20.359375 C 16.878906 -20.359375 18.765625 -19.59375 20.171875 -18.0625 C 21.578125 -16.539062 22.28125 -14.441406 22.28125 -11.765625 L 22.28125 0 L 16.140625 0 L 16.140625 -10.9375 C 16.140625 -12.289062 15.789062 -13.335938 15.09375 -14.078125 C 14.394531 -14.828125 13.457031 -15.203125 12.28125 -15.203125 C 11.101562 -15.203125 10.160156 -14.828125 9.453125 -14.078125 C 8.753906 -13.335938 8.40625 -12.289062 8.40625 -10.9375 L 8.40625 0 L 2.234375 0 L 2.234375 -20.15625 L 8.40625 -20.15625 L 8.40625 -17.484375 C 9.039062 -18.367188 9.882812 -19.066406 10.9375 -19.578125 C 12 -20.097656 13.191406 -20.359375 14.515625 -20.359375 Z M 14.515625 -20.359375 "/></g></g></g><g fill="#000000" fill-opacity="1"><g transform="translate(297.630728, 71.38875)"><g><path d="M 14.625 -20.359375 C 16.9375 -20.359375 18.789062 -19.59375 20.1875 -18.0625 C 21.582031 -16.539062 22.28125 -14.441406 22.28125 -11.765625 L 22.28125 0 L 16.140625 0 L 16.140625 -10.9375 C 16.140625 -12.289062 15.789062 -13.335938 15.09375 -14.078125 C 14.394531 -14.828125 13.457031 -15.203125 12.28125 -15.203125 C 11.101562 -15.203125 10.160156 -14.828125 9.453125 -14.078125 C 8.753906 -13.335938 8.40625 -12.289062 8.40625 -10.9375 L 8.40625 0 L 2.234375 0 L 2.234375 -26.71875 L 8.40625 -26.71875 L 8.40625 -17.4375 C 9.039062 -18.332031 9.898438 -19.039062 10.984375 -19.5625 C 12.066406 -20.09375 13.28125 -20.359375 14.625 -20.359375 Z M 14.625 -20.359375 "/></g></g></g><g fill="#000000" fill-opacity="1"><g transform="translate(321.96108, 71.38875)"><g><path d="M 1.015625 -10.109375 C 1.015625 -12.179688 1.40625 -14 2.1875 -15.5625 C 2.96875 -17.125 4.03125 -18.328125 5.375 -19.171875 C 6.726562 -20.015625 8.234375 -20.4375 9.890625 -20.4375 C 11.316406 -20.4375 12.5625 -20.144531 13.625 -19.5625 C 14.695312 -18.988281 15.523438 -18.234375 16.109375 -17.296875 L 16.109375 -20.15625 L 22.28125 -20.15625 L 22.28125 0 L 16.109375 0 L 16.109375 -2.859375 C 15.503906 -1.910156 14.664062 -1.148438 13.59375 -0.578125 C 12.519531 -0.00390625 11.273438 0.28125 9.859375 0.28125 C 8.222656 0.28125 6.726562 -0.144531 5.375 -1 C 4.03125 -1.851562 2.96875 -3.066406 2.1875 -4.640625 C 1.40625 -6.210938 1.015625 -8.035156 1.015625 -10.109375 Z M 16.109375 -10.078125 C 16.109375 -11.617188 15.679688 -12.832031 14.828125 -13.71875 C 13.972656 -14.613281 12.929688 -15.0625 11.703125 -15.0625 C 10.472656 -15.0625 9.429688 -14.617188 8.578125 -13.734375 C 7.722656 -12.859375 7.296875 -11.648438 7.296875 -10.109375 C 7.296875 -8.566406 7.722656 -7.34375 8.578125 -6.4375 C 9.429688 -5.539062 10.472656 -5.09375 11.703125 -5.09375 C 12.929688 -5.09375 13.972656 -5.535156 14.828125 -6.421875 C 15.679688 -7.316406 16.109375 -8.535156 16.109375 -10.078125 Z M 16.109375 -10.078125 "/></g></g></g><g fill="#000000" fill-opacity="1"><g transform="translate(346.471923, 71.38875)"><g><path d="M 10.4375 0.28125 C 8.675781 0.28125 7.109375 -0.015625 5.734375 -0.609375 C 4.367188 -1.210938 3.285156 -2.035156 2.484375 -3.078125 C 1.691406 -4.128906 1.25 -5.304688 1.15625 -6.609375 L 7.265625 -6.609375 C 7.328125 -5.910156 7.644531 -5.34375 8.21875 -4.90625 C 8.800781 -4.476562 9.515625 -4.265625 10.359375 -4.265625 C 11.128906 -4.265625 11.722656 -4.410156 12.140625 -4.703125 C 12.566406 -5.003906 12.78125 -5.398438 12.78125 -5.890625 C 12.78125 -6.460938 12.476562 -6.882812 11.875 -7.15625 C 11.28125 -7.4375 10.304688 -7.75 8.953125 -8.09375 C 7.503906 -8.425781 6.300781 -8.78125 5.34375 -9.15625 C 4.382812 -9.53125 3.554688 -10.117188 2.859375 -10.921875 C 2.160156 -11.722656 1.8125 -12.8125 1.8125 -14.1875 C 1.8125 -15.34375 2.128906 -16.394531 2.765625 -17.34375 C 3.398438 -18.300781 4.335938 -19.054688 5.578125 -19.609375 C 6.816406 -20.160156 8.289062 -20.4375 10 -20.4375 C 12.53125 -20.4375 14.519531 -19.8125 15.96875 -18.5625 C 17.425781 -17.3125 18.265625 -15.648438 18.484375 -13.578125 L 12.78125 -13.578125 C 12.6875 -14.273438 12.378906 -14.828125 11.859375 -15.234375 C 11.335938 -15.648438 10.660156 -15.859375 9.828125 -15.859375 C 9.097656 -15.859375 8.539062 -15.71875 8.15625 -15.4375 C 7.769531 -15.15625 7.578125 -14.773438 7.578125 -14.296875 C 7.578125 -13.722656 7.882812 -13.289062 8.5 -13 C 9.113281 -12.707031 10.070312 -12.414062 11.375 -12.125 C 12.863281 -11.75 14.078125 -11.375 15.015625 -11 C 15.960938 -10.625 16.789062 -10.019531 17.5 -9.1875 C 18.207031 -8.351562 18.570312 -7.238281 18.59375 -5.84375 C 18.59375 -4.664062 18.257812 -3.613281 17.59375 -2.6875 C 16.9375 -1.757812 15.988281 -1.03125 14.75 -0.5 C 13.507812 0.0195312 12.070312 0.28125 10.4375 0.28125 Z M 10.4375 0.28125 "/></g></g></g><g fill="#ff3131" fill-opacity="1"><g transform="translate(134.03257, 102.987168)"><g><path d="M 1.078125 -12.8125 C 1.078125 -15.34375 1.585938 -17.59375 2.609375 -19.5625 C 3.640625 -21.539062 5.101562 -23.078125 7 -24.171875 C 8.90625 -25.265625 11.144531 -25.8125 13.71875 -25.8125 C 15.9375 -25.8125 17.914062 -25.394531 19.65625 -24.5625 C 21.40625 -23.738281 22.828125 -22.566406 23.921875 -21.046875 C 25.015625 -19.535156 25.742188 -17.769531 26.109375 -15.75 L 17.65625 -15.75 C 17.269531 -16.582031 16.722656 -17.234375 16.015625 -17.703125 C 15.304688 -18.179688 14.492188 -18.421875 13.578125 -18.421875 C 12.234375 -18.421875 11.164062 -17.910156 10.375 -16.890625 C 9.59375 -15.878906 9.203125 -14.519531 9.203125 -12.8125 C 9.203125 -11.101562 9.59375 -9.742188 10.375 -8.734375 C 11.164062 -7.722656 12.234375 -7.21875 13.578125 -7.21875 C 14.492188 -7.21875 15.304688 -7.453125 16.015625 -7.921875 C 16.722656 -8.390625 17.269531 -9.046875 17.65625 -9.890625 L 26.109375 -9.890625 C 25.742188 -7.867188 25.015625 -6.097656 23.921875 -4.578125 C 22.828125 -3.066406 21.40625 -1.894531 19.65625 -1.0625 C 17.914062 -0.226562 15.9375 0.1875 13.71875 0.1875 C 11.144531 0.1875 8.90625 -0.359375 7 -1.453125 C 5.101562 -2.554688 3.640625 -4.09375 2.609375 -6.0625 C 1.585938 -8.039062 1.078125 -10.289062 1.078125 -12.8125 Z M 1.078125 -12.8125 "/></g></g></g><g fill="#ff3131" fill-opacity="1"><g transform="translate(161.214708, 102.987168)"><g><path d="M 1.078125 -12.8125 C 1.078125 -15.34375 1.585938 -17.59375 2.609375 -19.5625 C 3.640625 -21.539062 5.101562 -23.078125 7 -24.171875 C 8.90625 -25.265625 11.144531 -25.8125 13.71875 -25.8125 C 15.9375 -25.8125 17.914062 -25.394531 19.65625 -24.5625 C 21.40625 -23.738281 22.828125 -22.566406 23.921875 -21.046875 C 25.015625 -19.535156 25.742188 -17.769531 26.109375 -15.75 L 17.65625 -15.75 C 17.269531 -16.582031 16.722656 -17.234375 16.015625 -17.703125 C 15.304688 -18.179688 14.492188 -18.421875 13.578125 -18.421875 C 12.234375 -18.421875 11.164062 -17.910156 10.375 -16.890625 C 9.59375 -15.878906 9.203125 -14.519531 9.203125 -12.8125 C 9.203125 -11.101562 9.59375 -9.742188 10.375 -8.734375 C 11.164062 -7.722656 12.234375 -7.21875 13.578125 -7.21875 C 14.492188 -7.21875 15.304688 -7.453125 16.015625 -7.921875 C 16.722656 -8.390625 17.269531 -9.046875 17.65625 -9.890625 L 26.109375 -9.890625 C 25.742188 -7.867188 25.015625 -6.097656 23.921875 -4.578125 C 22.828125 -3.066406 21.40625 -1.894531 19.65625 -1.0625 C 17.914062 -0.226562 15.9375 0.1875 13.71875 0.1875 C 11.144531 0.1875 8.90625 -0.359375 7 -1.453125 C 5.101562 -2.554688 3.640625 -4.09375 2.609375 -6.0625 C 1.585938 -8.039062 1.078125 -10.289062 1.078125 -12.8125 Z M 1.078125 -12.8125 "/></g></g></g><g fill="#ff3131" fill-opacity="1"><g transform="translate(188.396847, 102.987168)"><g><path d="M 14.65625 0 L 9.859375 -9.171875 L 9.828125 -9.171875 L 9.828125 0 L 1.8125 0 L 1.8125 -25.5625 L 13.71875 -25.5625 C 15.789062 -25.5625 17.5625 -25.191406 19.03125 -24.453125 C 20.5 -23.722656 21.597656 -22.726562 22.328125 -21.46875 C 23.066406 -20.207031 23.4375 -18.78125 23.4375 -17.1875 C 23.4375 -15.476562 22.957031 -13.960938 22 -12.640625 C 21.050781 -11.316406 19.6875 -10.363281 17.90625 -9.78125 L 23.46875 0 Z M 9.828125 -14.515625 L 13 -14.515625 C 13.769531 -14.515625 14.347656 -14.6875 14.734375 -15.03125 C 15.117188 -15.382812 15.3125 -15.9375 15.3125 -16.6875 C 15.3125 -17.351562 15.113281 -17.878906 14.71875 -18.265625 C 14.320312 -18.648438 13.75 -18.84375 13 -18.84375 L 9.828125 -18.84375 Z M 9.828125 -14.515625 "/></g></g></g></svg>